<svg width="375" height="216" viewBox="0 0 375 216" fill="none" xmlns="http://www.w3.org/2000/svg">
<path d="M192 188H137.943C135.774 188 134 186.212 134 184.026V124H192V188Z" fill="url(#paint0_linear_6204_58300)"/>
<path d="M133.82 124H192L176.18 108H118L133.82 124Z" fill="#FFE3BA"/>
<path d="M192 188H246.989C249.195 188 251 186.212 251 184.026V124H192V188Z" fill="url(#paint1_linear_6204_58300)"/>
<path d="M250.18 124H192L207.82 108H266L250.18 124Z" fill="#FFD390"/>
<path d="M169 173H152V188H169V173Z" fill="#FFE3BA"/>
<path d="M247 133H230V135H247V133Z" fill="#FFD390"/>
<path d="M247 138H230V140H247V138Z" fill="#FFD390"/>
<path d="M111.098 67.6527L107.644 65L99.0001 76.2564L102.455 78.9091L111.098 67.6527Z" fill="#80E5D4"/>
<path d="M266.178 55.6091L262.13 54L258 64.3896L262.048 65.9987L266.178 55.6091Z" fill="#FFD585"/>
<path d="M129.269 78.9997L126 81.8779L135.378 92.5307L138.648 89.6524L129.269 78.9997Z" fill="#657EE3"/>
<path d="M285.577 87.8462L283.532 84L271 90.6615L273.044 94.5078L285.577 87.8462Z" fill="#C580E5"/>
<path d="M108.291 130.16C109.975 130.16 111.34 128.795 111.34 127.111C111.34 125.427 109.975 124.062 108.291 124.062C106.607 124.062 105.242 125.427 105.242 127.111C105.242 128.795 106.607 130.16 108.291 130.16Z" fill="#EB75B3"/>
<path d="M118.611 28H114.328L112.187 31.7025L114.328 35.4413H118.611L120.789 31.7025L118.611 28Z" fill="#FFB7B7"/>
<path d="M304.425 47H300.142L298 50.7025L300.142 54.4413H304.425L306.567 50.7025L304.425 47Z" fill="#50506A"/>
<path d="M74.7905 80.6771L70.9332 89.7618L80.7027 88.5761L74.7905 80.6771Z" fill="#50506A"/>
<path d="M279.005 117.673L271.273 123.771L280.457 127.401L279.005 117.673Z" fill="#EB75B3"/>
<g clip-path="url(#clip0_6204_58300)">
<path d="M177 77.9941V91.3713H186.39V78.5741C186.39 77.329 186.884 76.1348 187.765 75.2543C188.645 74.3739 189.84 73.8792 191.085 73.8792H200.713C202.937 73.8792 205.14 73.4411 207.195 72.5898C209.25 71.7385 211.117 70.4908 212.69 68.9178C214.263 67.3449 215.51 65.4776 216.361 63.4225C217.212 61.3673 217.65 59.1647 217.65 56.9403V56.9403C217.651 54.7158 217.213 52.513 216.362 50.4577C215.511 48.4024 214.263 46.535 212.69 44.9619C211.117 43.3888 209.25 42.141 207.195 41.2896C205.14 40.4382 202.937 40 200.713 40H177V56.7216H186.39V48.8367H200.077C202.203 48.8367 204.241 49.681 205.744 51.1838C207.247 52.6865 208.092 54.7248 208.092 56.8502C208.092 58.9759 207.247 61.0145 205.744 62.5176C204.241 64.0206 202.203 64.865 200.077 64.865H190.125C188.401 64.8643 186.694 65.2035 185.101 65.8631C183.508 66.5227 182.06 67.4898 180.841 68.7091C179.622 69.9285 178.656 71.3761 177.997 72.9693C177.337 74.5625 176.999 76.2699 177 77.9941V77.9941Z" fill="url(#paint2_radial_6204_58300)"/>
<path d="M191.082 73.8779C189.233 73.8778 187.402 74.2419 185.693 74.9495C183.984 75.6572 182.432 76.6944 181.124 78.0021C179.817 79.3098 178.779 80.8622 178.072 82.5708C177.364 84.2794 177 86.1107 177 87.9601V91.37H186.39V78.5728C186.39 77.3281 186.884 76.1343 187.764 75.2539C188.644 74.3735 189.837 73.8786 191.082 73.8779V73.8779Z" fill="url(#paint3_linear_6204_58300)"/>
</g>
<defs>
<linearGradient id="paint0_linear_6204_58300" x1="172.333" y1="124.507" x2="147.012" y2="187.865" gradientUnits="userSpaceOnUse">
<stop stop-color="#FFD391"/>
<stop offset="1" stop-color="#FFA26D"/>
</linearGradient>
<linearGradient id="paint1_linear_6204_58300" x1="251.551" y1="188" x2="192.479" y2="123.958" gradientUnits="userSpaceOnUse">
<stop stop-color="#FF7E62"/>
<stop offset="1" stop-color="#FFA26D"/>
</linearGradient>
<radialGradient id="paint2_radial_6204_58300" cx="0" cy="0" r="1" gradientUnits="userSpaceOnUse" gradientTransform="translate(217.794 32.8676) scale(51.7044)">
<stop stop-color="#A995FF"/>
<stop offset="1" stop-color="#6652F5"/>
</radialGradient>
<linearGradient id="paint3_linear_6204_58300" x1="184.041" y1="88.8399" x2="184.041" y2="69.183" gradientUnits="userSpaceOnUse">
<stop stop-color="#6D4BFD"/>
<stop offset="1" stop-color="#1C0554"/>
</linearGradient>
<clipPath id="clip0_6204_58300">
<rect width="40.6489" height="51.37" fill="white" transform="translate(177 40)"/>
</clipPath>
</defs>
</svg>
