<svg width="24" height="25" viewBox="0 0 24 25" fill="none" xmlns="http://www.w3.org/2000/svg">
<path d="M17.2857 3.25H17.4286C18.241 3.25 18.8053 3.25058 19.2441 3.28644C19.6741 3.32157 19.9172 3.38681 20.0995 3.47966C20.496 3.68168 20.8183 4.00404 21.0203 4.40052C21.1132 4.58276 21.1784 4.82588 21.2136 5.25594C21.2494 5.69475 21.25 6.25898 21.25 7.07143V7.21429C21.25 8.02674 21.2494 8.59097 21.2136 9.02978C21.1784 9.45983 21.1132 9.70296 21.0203 9.88519C20.8183 10.2817 20.496 10.604 20.0995 10.806C19.9172 10.8989 19.6741 10.9641 19.2441 10.9993C18.8053 11.0351 18.241 11.0357 17.4286 11.0357H17.2857C16.4733 11.0357 15.909 11.0351 15.4702 10.9993C15.0402 10.9641 14.797 10.8989 14.6148 10.806C14.2183 10.604 13.896 10.2817 13.694 9.88519C13.6011 9.70296 13.5359 9.45983 13.5007 9.02978C13.4649 8.59097 13.4643 8.02674 13.4643 7.21429V7.07143C13.4643 6.25898 13.4649 5.69475 13.5007 5.25594C13.5359 4.82588 13.6011 4.58276 13.694 4.40052C13.896 4.00404 14.2183 3.68168 14.6148 3.47966C14.797 3.38681 15.0402 3.32157 15.4702 3.28644C15.909 3.25058 16.4733 3.25 17.2857 3.25ZM17.2857 13.9643H17.4286C18.241 13.9643 18.8053 13.9649 19.2441 14.0007C19.6741 14.0359 19.9172 14.1011 20.0995 14.194C20.496 14.396 20.8183 14.7183 21.0203 15.1148C21.1132 15.297 21.1784 15.5402 21.2136 15.9702C21.2494 16.409 21.25 16.9733 21.25 17.7857V17.9286C21.25 18.741 21.2494 19.3053 21.2136 19.7441C21.1784 20.1741 21.1132 20.4172 21.0203 20.5995C20.8183 20.996 20.496 21.3183 20.0995 21.5203C19.9172 21.6132 19.6741 21.6784 19.2441 21.7136C18.8053 21.7494 18.241 21.75 17.4286 21.75H17.2857C16.4733 21.75 15.909 21.7494 15.4702 21.7136C15.0402 21.6784 14.797 21.6132 14.6148 21.5203C14.2183 21.3183 13.896 20.996 13.694 20.5995C13.6011 20.4172 13.5359 20.1741 13.5007 19.7441C13.4649 19.3053 13.4643 18.741 13.4643 17.9286V17.7857C13.4643 16.9733 13.4649 16.409 13.5007 15.9702C13.5359 15.5402 13.6011 15.297 13.694 15.1148C13.896 14.7183 14.2183 14.396 14.6148 14.194C14.797 14.1011 15.0402 14.0359 15.4702 14.0007C15.909 13.9649 16.4733 13.9643 17.2857 13.9643ZM6.57143 3.25H6.71429C7.52674 3.25 8.09097 3.25058 8.52978 3.28644C8.95983 3.32157 9.20296 3.38681 9.38519 3.47966C9.78168 3.68168 10.104 4.00404 10.306 4.40052C10.3989 4.58276 10.4641 4.82588 10.4993 5.25594C10.5351 5.69475 10.5357 6.25898 10.5357 7.07143V7.21429C10.5357 8.02674 10.5351 8.59097 10.4993 9.02978C10.4641 9.45983 10.3989 9.70296 10.306 9.88519C10.104 10.2817 9.78168 10.604 9.38519 10.806C9.20296 10.8989 8.95983 10.9641 8.52978 10.9993C8.09097 11.0351 7.52674 11.0357 6.71429 11.0357H6.57143C5.75898 11.0357 5.19475 11.0351 4.75594 10.9993C4.32588 10.9641 4.08276 10.8989 3.90052 10.806C3.50404 10.604 3.18168 10.2817 2.97966 9.88519C2.88681 9.70296 2.82157 9.45983 2.78644 9.02978C2.75058 8.59097 2.75 8.02674 2.75 7.21429V7.07143C2.75 6.25898 2.75058 5.69475 2.78644 5.25594C2.82157 4.82588 2.88681 4.58276 2.97966 4.40052C3.18168 4.00404 3.50404 3.68168 3.90052 3.47966C4.08276 3.38681 4.32588 3.32157 4.75594 3.28644C5.19475 3.25058 5.75898 3.25 6.57143 3.25ZM6.57143 13.9643H6.71429C7.52674 13.9643 8.09097 13.9649 8.52978 14.0007C8.95983 14.0359 9.20296 14.1011 9.38519 14.194C9.78168 14.396 10.104 14.7183 10.306 15.1148C10.3989 15.297 10.4641 15.5402 10.4993 15.9702C10.5351 16.409 10.5357 16.9733 10.5357 17.7857V17.9286C10.5357 18.741 10.5351 19.3053 10.4993 19.7441C10.4641 20.1741 10.3989 20.4172 10.306 20.5995C10.104 20.996 9.78168 21.3183 9.38519 21.5203C9.20296 21.6132 8.95983 21.6784 8.52978 21.7136C8.09097 21.7494 7.52674 21.75 6.71429 21.75H6.57143C5.75898 21.75 5.19475 21.7494 4.75594 21.7136C4.32588 21.6784 4.08276 21.6132 3.90052 21.5203C3.50404 21.3183 3.18168 20.996 2.97966 20.5995C2.88681 20.4172 2.82157 20.1741 2.78644 19.7441C2.75058 19.3053 2.75 18.741 2.75 17.9286V17.7857C2.75 16.9733 2.75058 16.409 2.78644 15.9702C2.82157 15.5402 2.88681 15.297 2.97966 15.1148C3.18168 14.7183 3.50404 14.396 3.90052 14.194C4.08276 14.1011 4.32588 14.0359 4.75594 14.0007C5.19475 13.9649 5.75898 13.9643 6.57143 13.9643Z" stroke="#0C0C14" stroke-width="1.5"/>
</svg>
