<svg width="16" height="16" fill="none" xmlns="http://www.w3.org/2000/svg"><path d="M11 6a1 1 0 1 1-2 0 1 1 0 0 1 2 0Z" fill="#000"/><path fill-rule="evenodd" clip-rule="evenodd" d="M1.146 1.854a.5.5 0 1 1 .708-.708l.872.873C2.816 2.006 2.907 2 3 2h10a2 2 0 0 1 2 2v8c0 .627-.288 1.186-.74 1.553l.594.593a.5.5 0 0 1-.708.707l-.872-.872h-.002L12.29 13h.003l-1-1h-.003L8.44 9.152l.002-.002-5.988-5.988h-.002l-.715-.714.002-.001-.594-.593Zm12.4 10.984A.999.999 0 0 0 14 12V4a1 1 0 0 0-1-1H3.707l9.838 9.838Z" fill="#000"/><path d="M1.152 3.234A1.994 1.994 0 0 0 1 4v8a2 2 0 0 0 2 2h8.918l-1-1H3a1 1 0 0 1-1-1V4.082l-.848-.848Z" fill="#000"/><path d="m7.808 9.89-.475.554L5.9 8.534a.5.5 0 0 0-.8 0l-2 2.666a.5.5 0 0 0 .4.8h6.418l-2.11-2.11Z" fill="#000"/></svg>