<svg width="32" height="32" viewBox="0 0 32 32" fill="none" xmlns="http://www.w3.org/2000/svg">
<path d="M30.2164 27.934L27.2516 22.7987C26.9172 22.2196 26.8944 21.5117 27.1908 20.9123L27.84 19.5992C28.1364 18.9998 28.1136 18.2919 27.7793 17.7128L23.5585 10.4022C23.1169 9.63727 22.2258 9.25261 21.3663 9.45581L17.7342 10.3145L13.2894 11.586C12.407 11.8384 11.4661 11.4579 11.0073 10.6631L7.78805 5.08725C7.23576 4.13066 6.01258 3.80291 5.056 4.3552C4.09941 4.90748 3.77166 6.13066 4.32395 7.08725L12.4078 21.0889C12.5755 21.3794 12.3328 21.7349 12.0012 21.6844L8.47654 21.1476C7.41047 20.9852 6.43418 21.7709 6.36481 22.847C6.30581 23.7624 6.93049 24.5812 7.82892 24.7662L17.1765 26.6907C17.736 26.8059 18.2196 27.1548 18.5052 27.6496L19.5561 29.4699" stroke="#999693" stroke-width="2" stroke-linecap="round"/>
<path d="M23.8139 4.48766C24.2477 4.82958 24.8764 4.75516 25.2184 4.32144C25.5603 3.88772 25.4859 3.25895 25.0521 2.91703L23.8139 4.48766ZM8.6889 5.1752C12.7903 1.27728 19.2403 0.88205 23.8139 4.48766L25.0521 2.91703C19.6865 -1.31294 12.1229 -0.847552 7.3111 3.72548L8.6889 5.1752Z" fill="#999693"/>
</svg>
