<svg width="375" height="212" viewBox="0 0 375 212" fill="none" xmlns="http://www.w3.org/2000/svg">
<path d="M241.675 58.3243L193.348 42.9431C189.279 41.6531 184.913 41.6531 180.845 42.9431L132.518 58.3243C130.037 59.1181 128.251 61.4005 128.152 64.0798C127.457 82.6364 128.648 154.581 186.104 173.534C186.799 173.733 187.493 173.733 188.089 173.534C245.545 154.581 246.735 82.6364 246.041 64.0798C245.942 61.4005 244.155 59.1181 241.675 58.3243Z" fill="white"/>
<path d="M241.675 58.3243L193.348 42.9431C189.279 41.6531 184.913 41.6531 180.845 42.9431L132.518 58.3243C130.037 59.1181 128.251 61.4005 128.152 64.0798C127.457 82.6364 128.648 154.581 186.104 173.534C186.799 173.733 187.493 173.733 188.089 173.534C245.545 154.581 246.735 82.6364 246.041 64.0798C245.942 61.4005 244.155 59.1181 241.675 58.3243Z" fill="url(#paint0_linear_12027_25640)"/>
<path d="M186.495 132.524C201.952 132.524 214.482 119.993 214.482 104.536C214.482 89.0789 201.952 76.5483 186.495 76.5483C171.037 76.5483 158.507 89.0789 158.507 104.536C158.507 119.993 171.037 132.524 186.495 132.524Z" fill="white"/>
<path fill-rule="evenodd" clip-rule="evenodd" d="M193.39 96.2233V98.9287H196.139C197.079 98.9287 197.875 99.657 197.875 100.593V114.709C197.875 115.611 197.116 116.374 196.139 116.374H177.587C176.647 116.374 175.852 115.646 175.852 114.709V100.593C175.852 99.6917 176.611 98.9287 177.587 98.9287H180.299V96.2233C180.299 92.7551 183.228 89.9458 186.845 89.9458C190.461 89.9458 193.39 92.7551 193.39 96.2233ZM190.634 96.2233V98.9287H183.128V96.2233C183.128 93.7262 185.116 92.6238 186.881 92.6238C188.646 92.6238 190.634 93.7262 190.634 96.2233ZM186.863 103.16C188.087 103.16 189.065 104.143 189.065 105.371C189.065 106.214 188.611 106.951 187.912 107.302L188.821 111.235H184.905L185.814 107.302C185.115 106.916 184.661 106.214 184.661 105.371C184.661 104.143 185.64 103.16 186.863 103.16Z" fill="#372580"/>
<mask id="mask0_12027_25640" style="mask-type:alpha" maskUnits="userSpaceOnUse" x="128" y="41" width="119" height="133">
<path d="M241.675 58.3243L193.348 42.9431C189.279 41.6531 184.913 41.6531 180.845 42.9431L132.518 58.3243C130.037 59.1181 128.251 61.4005 128.152 64.0798C127.457 82.6364 128.648 154.581 186.104 173.534C186.799 173.733 187.493 173.733 188.089 173.534C245.545 154.581 246.735 82.6364 246.041 64.0798C245.942 61.4005 244.155 59.1181 241.675 58.3243Z" fill="black"/>
</mask>
<g mask="url(#mask0_12027_25640)">
<g opacity="0.25" filter="url(#filter0_f_12027_25640)">
<path d="M220.655 61.4117C220.655 46.2571 232.94 33.9727 248.094 33.9727C263.249 33.9727 275.533 46.2571 275.533 61.4117C275.533 76.5663 263.249 88.8507 248.094 88.8507C232.94 88.8507 220.655 76.5663 220.655 61.4117Z" fill="#221548"/>
</g>
</g>
<path d="M218.369 55.6949C218.369 40.5403 230.654 28.2559 245.808 28.2559C260.963 28.2559 273.247 40.5403 273.247 55.6949C273.247 70.8495 260.963 83.1339 245.808 83.1339C230.654 83.1339 218.369 70.8495 218.369 55.6949Z" fill="url(#paint1_linear_12027_25640)"/>
<path fill-rule="evenodd" clip-rule="evenodd" d="M258.069 47.9781C258.791 48.6687 258.796 49.7928 258.08 50.4888L244.784 63.4016C244.433 63.7398 243.964 63.9281 243.476 63.9266C242.989 63.9281 242.52 63.7398 242.169 63.4016L235.366 56.7943C235.197 56.6319 235.062 56.4367 234.97 56.2205C234.878 56.0043 234.831 55.7717 234.832 55.5368C234.833 55.3019 234.882 55.0697 234.975 54.8542C235.069 54.6388 235.205 54.4446 235.376 54.2836C235.729 53.9508 236.196 53.7662 236.681 53.7679C237.166 53.7696 237.632 53.9575 237.982 54.2928L243.476 59.6306L255.463 47.9873C255.813 47.652 256.279 47.4641 256.764 47.4624C257.249 47.4607 257.716 47.6453 258.069 47.9781Z" fill="white"/>
<defs>
<filter id="filter0_f_12027_25640" x="209.343" y="22.6604" width="77.5024" height="77.5024" filterUnits="userSpaceOnUse" color-interpolation-filters="sRGB">
<feFlood flood-opacity="0" result="BackgroundImageFix"/>
<feBlend mode="normal" in="SourceGraphic" in2="BackgroundImageFix" result="shape"/>
<feGaussianBlur stdDeviation="5.65613" result="effect1_foregroundBlur_12027_25640"/>
</filter>
<linearGradient id="paint0_linear_12027_25640" x1="187.096" y1="46.0654" x2="187.096" y2="224.744" gradientUnits="userSpaceOnUse">
<stop stop-color="#6D4AFF" stop-opacity="0.5"/>
<stop offset="1" stop-color="#6D4AFF"/>
</linearGradient>
<linearGradient id="paint1_linear_12027_25640" x1="248.652" y1="24.2543" x2="248.909" y2="83.1339" gradientUnits="userSpaceOnUse">
<stop stop-color="#2AF091"/>
<stop offset="1" stop-color="#00C5A1"/>
</linearGradient>
</defs>
</svg>
